<svg width="22" height="22" viewBox="0 0 22 22" fill="none" xmlns="http://www.w3.org/2000/svg">
<path fill-rule="evenodd" clip-rule="evenodd" d="M6.36427 16.7089L1.28619 21.787C1.14305 21.9252 0.951341 22.0017 0.752348 22C0.553356 21.9982 0.363004 21.9184 0.22229 21.7777C0.0815756 21.637 0.00175788 21.4466 2.869e-05 21.2477C-0.0017005 21.0487 0.0747966 20.857 0.213044 20.7138L5.29113 15.6357C3.82693 13.9218 3.0237 11.7409 3.02644 9.48678C3.02644 4.25084 7.27728 0 12.5132 0C17.7492 0 22 4.25084 22 9.48678C22 14.7227 17.7492 18.9736 12.5132 18.9736C10.1681 18.9736 8.02028 18.1205 6.36427 16.7089ZM12.5132 1.51788C8.11515 1.51788 4.54433 5.08871 4.54433 9.48678C4.54433 13.8848 8.11515 17.4557 12.5132 17.4557C16.9113 17.4557 20.4821 13.8848 20.4821 9.48678C20.4821 5.08871 16.9113 1.51788 12.5132 1.51788ZM12.5132 4.17418C11.647 4.17404 10.7938 4.38579 10.0282 4.79098C9.2625 5.19617 8.60757 5.78248 8.12046 6.49882C8.00469 6.65904 7.83097 6.76777 7.63626 6.80187C7.44155 6.83597 7.24122 6.79276 7.07788 6.68143C6.91454 6.5701 6.80108 6.39943 6.76164 6.20573C6.7222 6.01203 6.75989 5.81059 6.86669 5.64425C7.49278 4.72343 8.33463 3.96975 9.31883 3.44894C10.303 2.92813 11.3997 2.65601 12.5132 2.6563C12.7145 2.6563 12.9075 2.73626 13.0499 2.87859C13.1922 3.02092 13.2722 3.21396 13.2722 3.41524C13.2722 3.61652 13.1922 3.80956 13.0499 3.95189C12.9075 4.09422 12.7145 4.17418 12.5132 4.17418Z" fill="#0F1316"/>
</svg>
