<svg width="55" height="41" viewBox="0 0 55 41" fill="none" xmlns="http://www.w3.org/2000/svg">
<path d="M41.8436 40.2106C34.2066 40.2106 28.6929 33.9734 28.6929 24.7371C28.7407 11.3191 38.9385 1.83213 53.6505 0.0108986C55.0134 -0.159401 55.5394 1.71387 54.2841 2.26498C48.6413 4.74848 45.7888 7.89898 45.4206 11.0164C45.1456 13.3461 46.4248 15.3873 48.034 15.7705C52.2016 16.7615 54.9943 21.8965 54.9943 27.2017C54.9943 30.6519 53.6088 33.9607 51.1425 36.4004C48.6763 38.84 45.3314 40.2106 41.8436 40.2106ZM13.1512 40.2106C5.51419 40.2106 0.000461578 33.9734 0.000461578 24.7371C0.0482788 11.3191 10.246 1.83213 24.9581 0.0108986C26.321 -0.159401 26.847 1.71387 25.5917 2.26498C19.9489 4.74848 17.0964 7.89898 16.7281 11.0164C16.4532 13.3461 17.7324 15.3873 19.3415 15.7705C23.5091 16.7615 26.3019 21.8965 26.3019 27.2017C26.3019 30.6519 24.9163 33.9607 22.4501 36.4004C19.9839 38.84 16.6389 40.2106 13.1512 40.2106Z" fill="black"/>
<path d="M41.8475 40.2108C34.2105 40.2108 28.6968 33.9737 28.6968 24.7374C28.7446 11.3194 38.9424 1.83238 53.6544 0.0111427C55.0173 -0.159157 55.5433 1.71412 54.2881 2.26522C48.6452 4.74873 45.7927 7.89923 45.4245 11.0166C45.1495 13.3464 46.4287 15.3876 48.0379 15.7708C52.2055 16.7618 54.9982 21.8967 54.9982 27.202C54.9982 30.6521 53.6127 33.961 51.1464 36.4006C48.6802 38.8402 45.3353 40.2108 41.8475 40.2108ZM31.0878 24.7421C31.0878 32.7319 35.6069 37.8456 41.8475 37.8456C44.7011 37.8456 47.4379 36.7242 49.4557 34.7281C51.4735 32.7321 52.6072 30.0248 52.6072 27.202C52.6072 22.8689 50.3715 18.7581 47.4784 18.0698C44.6378 17.3933 42.6413 14.2121 43.0502 10.7423C43.3371 8.32497 44.6761 5.99521 47.0671 3.91616C37.3332 7.24169 31.1237 14.801 31.0878 24.7421ZM13.1551 40.2108C5.51809 40.2108 0.00436783 33.9737 0.00436783 24.7374C0.0521851 11.3194 10.25 1.83238 24.962 0.0111427C26.3249 -0.159157 26.8509 1.71412 25.5956 2.26522C19.9528 4.74873 17.1003 7.89923 16.7321 11.0166C16.4571 13.3464 17.7363 15.3876 19.3455 15.7708C23.513 16.7618 26.3058 21.8967 26.3058 27.202C26.3058 30.6521 24.9202 33.961 22.454 36.4006C19.9878 38.8402 16.6428 40.2108 13.1551 40.2108ZM2.3954 24.7421C2.3954 32.7319 6.91446 37.8456 13.1551 37.8456C16.0087 37.8456 18.7455 36.7242 20.7633 34.7281C22.7811 32.7321 23.9147 30.0248 23.9147 27.202C23.9147 22.8689 21.6791 18.7581 18.7859 18.0698C15.9454 17.3933 13.9489 14.2121 14.3578 10.7423C14.6447 8.32497 15.9837 5.99521 18.3747 3.91616C8.64079 7.24169 2.43127 14.801 2.3954 24.7421Z" fill="black"/>
</svg>
