<svg width="424" height="370" viewBox="0 0 424 370" fill="none" xmlns="http://www.w3.org/2000/svg">
<path d="M72 36C72 52.5685 85.4315 66 102 66H322C338.569 66 352 52.5685 352 36V30C352 13.4315 365.431 0 382 0H394C410.569 0 424 13.4315 424 30V340C424 356.569 410.569 370 394 370H338.529C330.574 370 321.638 366.874 321.033 358.941C320.775 355.563 321.493 352.08 323.288 348.937L324.825 346.245C332.776 332.32 322.72 315 306.686 315H291.966C275.761 315 265.598 332.503 273.633 346.576L275.185 349.293C276.771 352.072 277.522 355.118 277.502 358.127C277.446 366.461 268.064 370 259.73 370H30C13.4315 370 0 356.569 0 340V30C0 13.4315 13.4315 0 30 0H42C58.5685 0 72 13.4315 72 30V36Z" fill="#1E1E1E"/>
</svg>
